<svg xmlns="http://www.w3.org/2000/svg" width="138.196" height="94" viewBox="0 0 138.196 94">
  <g id="Group_137" data-name="Group 137" transform="translate(-326 -1740.75)">
    <circle id="Ellipse_168" data-name="Ellipse 168" cx="47" cy="47" r="47" transform="translate(326 1740.75)" fill="#ffe9e2"/>
    <g id="envelope" transform="translate(247.48 1489.995)">
      <g id="Layer_2" transform="translate(114 263)">
        <path id="Path_230" data-name="Path 230" d="M114,272.5v50.517a9.5,9.5,0,0,0,9.5,9.5h82.722a9.5,9.5,0,0,0,9.5-9.5V272.5a9.5,9.5,0,0,0-9.5-9.5H123.5A9.5,9.5,0,0,0,114,272.5Z" transform="translate(-114 -263)" fill="none" stroke="#db9292" stroke-miterlimit="10" stroke-width="2"/>
      </g>
      <g id="Layer_3" transform="translate(116.44 265.739)">
        <path id="Path_231" data-name="Path 231" d="M125.12,270.313l40.9,29.3a12.964,12.964,0,0,0,14.144,0L221.912,269.7" transform="translate(-125.12 -269.7)" fill="none" stroke="#db9292" stroke-miterlimit="10" stroke-width="2"/>
      </g>
      <g id="Layer_4" transform="translate(116.486 306.13)">
        <line id="Line_171" data-name="Line 171" x1="23.466" y2="23.466" transform="translate(0 0)" fill="none" stroke="#db9292" stroke-miterlimit="10" stroke-width="2"/>
        <line id="Line_172" data-name="Line 172" x2="24.034" y2="24.033" transform="translate(72.711 0)" fill="none" stroke="#db9292" stroke-miterlimit="10" stroke-width="2"/>
      </g>
    </g>
    <path id="Path_236" data-name="Path 236" d="M20360.273,13771.659l-37.131-36.9" transform="translate(-19900 -11952)" fill="none" stroke="#db9292" stroke-width="2"/>
    <path id="Path_237" data-name="Path 237" d="M20263.926,13771.659l36.721-36.7" transform="translate(-19900 -11952)" fill="none" stroke="#db9292" stroke-width="2"/>
  </g>
</svg>
