<svg xmlns="http://www.w3.org/2000/svg" width="46.903" height="46.903" viewBox="0 0 46.903 46.903">
  <g id="Group_56" data-name="Group 56" transform="translate(-1520 -4060.356)">
    <g id="Group_12" data-name="Group 12" transform="translate(1520 4060.356)">
      <path id="Path_8" data-name="Path 8" d="M-20.97-22.453H-61.676a3.1,3.1,0,0,1-3.1-3.1V-66.258a3.1,3.1,0,0,1,3.1-3.1H-20.97a3.1,3.1,0,0,1,3.1,3.1v40.707a3.1,3.1,0,0,1-3.1,3.1" transform="translate(64.775 69.356)" fill="none"/>
    </g>
    <g id="Group_13" data-name="Group 13" transform="translate(1533.732 4065.375)">
      <path id="Path_9" data-name="Path 9" d="M-7.223-3.37h3.757a.911.911,0,0,0,.911-.911v-5.1a1.026,1.026,0,0,0-1.027-1.027h-5.3a7.978,7.978,0,0,0-7.978,7.978v5.42h-4.6a.853.853,0,0,0-.853.853V9.668a.814.814,0,0,0,.814.814h4.636V25.506a.871.871,0,0,0,.871.871h5.913a.936.936,0,0,0,.936-.937V10.482h5.509a.849.849,0,0,0,.849-.849V3.891a.9.9,0,0,0-.9-.9H-9.141v-4.44A1.918,1.918,0,0,1-7.223-3.37Z" transform="translate(22.311 10.409)" fill="none" stroke="#fffaf4" stroke-width="1.131"/>
    </g>
  </g>
</svg>
