<svg xmlns="http://www.w3.org/2000/svg" width="47.086" height="47.086" viewBox="0 0 47.086 47.086">
  <g id="Group_55" data-name="Group 55" transform="translate(-1601.381 -4060.356)">
    <g id="Group_10" data-name="Group 10" transform="translate(1601.381 4060.356)">
      <path id="Path_6" data-name="Path 6" d="M-20.779-22.27H-61.564a3.151,3.151,0,0,1-3.151-3.151V-66.205a3.151,3.151,0,0,1,3.151-3.151h40.785a3.151,3.151,0,0,1,3.151,3.151V-25.42a3.151,3.151,0,0,1-3.151,3.151" transform="translate(64.715 69.356)" fill="none"/>
    </g>
    <g id="Group_11" data-name="Group 11" transform="translate(1608.418 4067.331)">
      <path id="Path_7" data-name="Path 7" d="M0-3.864V13.621a8.255,8.255,0,0,0,8.255,8.255H25.2a7.944,7.944,0,0,0,7.944-7.944V-3.549A8.485,8.485,0,0,0,24.6-12.034l-16.585.1A8.067,8.067,0,0,0,0-3.864ZM25.318,5.1A8.748,8.748,0,1,1,16.57-3.648,8.748,8.748,0,0,1,25.318,5.1ZM28.406-5.295a1.853,1.853,0,0,1-1.853,1.853A1.852,1.852,0,0,1,24.7-5.295a1.852,1.852,0,0,1,1.852-1.852A1.852,1.852,0,0,1,28.406-5.295Z" transform="translate(0 12.034)" fill="none" stroke="#fffaf4" stroke-width="1.131"/>
    </g>
  </g>
</svg>
