<svg xmlns="http://www.w3.org/2000/svg" width="226" height="226" viewBox="0 0 226 226">
  <g id="Group_102" data-name="Group 102" transform="translate(-85 27)">
    <circle id="Ellipse_73" data-name="Ellipse 73" cx="113" cy="113" r="113" transform="translate(85 -27)" fill="#b69b92"/>
    <g id="web_logo" transform="translate(-162.761 -550.298)">
      <g id="Layer_4" data-name="Layer 4" transform="translate(314.553 654.553)">
        <path id="Path_141" data-name="Path 141" d="M441.47,817.124c-1.807-8.192-7.867-13.573-11.659-14.2s-8.881-2.445-22.012,3.626l-.21-1.232s-.749,4-7.388,7.5-35.371,8.048-47.56,4.3c0,0-13-3.1-15.731-8.59,0,0,4.171,23.9,6.436,30.229s6.075,19.482,12.839,21.573,24.28,3.972,28.614,1.925,9.129-.918,15.4-6.646l.922-2.018s10.4-7.808,17.829-10.925,16.863-9.365,18.6-12.511a13.687,13.687,0,0,0,3.917-13.031Zm-20.5,14.432c-11,7.067-15.056,10.386-18.006,15.55l2.951-13.278s2.158-12.5,2-17.128c0,0,4.267-5,7.587-6.108s8.483-3.319,12.54-1.107,6.34,3.6,6.491,8.992-2.563,6.012-13.562,13.079Z" transform="translate(-336.91 -802.172)" fill="#fffaf4"/>
      </g>
      <g id="Layer_2" data-name="Layer 2" transform="translate(301.489 568.29)">
        <path id="Path_142" data-name="Path 142" d="M344.959,778.191c-4.905,1.369-9.719,5.319-9.726,10.766.5,6.03,10.91,8.874,15.919,9.918a71.878,71.878,0,0,0,21.761.782c8.391-.8,29.728-2.246,32.1-11.9a8.624,8.624,0,0,0-1.247-6.6c-2.49-3.862-8.2-5.54-12.536-6.281l.044-.365a26.409,26.409,0,0,1,7.229,1.7,18.919,18.919,0,0,1,3.367,1.689,9.951,9.951,0,0,1,4.382,10.124c-1.129,5.282-6.654,7.933-11.268,9.553a59.15,59.15,0,0,1-7.222,1.9c-14.554,2.512-29.931,4.26-44.116-1.162-4.374-1.774-10.537-5.171-9.372-10.814a10.929,10.929,0,0,1,2.534-5.119,15.282,15.282,0,0,1,8.077-4.551l.077.361h0Z" transform="translate(-322.091 -698.45)" fill="#fffaf4"/>
        <path id="Path_143" data-name="Path 143" d="M335.455,808.054c2.475,12.068,8.476,42.371,16.915,50.3a9.492,9.492,0,0,0,4.009,1.877,70.032,70.032,0,0,0,19.2,2.165c6.624-.181,17.833-1.066,21.971-6.746a9.317,9.317,0,0,0,.981-2.032c.232-.561.664-1.7.863-2.272a126.722,126.722,0,0,0,6.794-48.224l.369-.033a97.825,97.825,0,0,1,.586,9.863,122.442,122.442,0,0,1-.491,12.356,114.528,114.528,0,0,1-6.377,29c-2.777,8.671-16.929,9.973-24.656,10.183a68.758,68.758,0,0,1-19.825-2.268A11.375,11.375,0,0,1,351,859.89c-6.772-6.528-10.486-23.129-12.577-32.328-1.365-6.443-2.508-12.924-3.338-19.452l.365-.055Z" transform="translate(-322.697 -716.489)" fill="#fffaf4"/>
        <path id="Path_144" data-name="Path 144" d="M515.826,804.873c6.882-4.459,16.951-7.159,24.59-3.124a22.065,22.065,0,0,1,2.7,1.852c.373.269.867.767,1.221,1.081a19.817,19.817,0,0,1,3.965,5.156,18.248,18.248,0,0,1,1.409,13.9,17.8,17.8,0,0,1-3.939,5.684,52.49,52.49,0,0,1-15.649,10.832,104.926,104.926,0,0,0-11.216,5.695,115.523,115.523,0,0,0-10.471,6.982l-.229-.288a105.215,105.215,0,0,1,10.346-7.284,98.306,98.306,0,0,1,11.164-5.953,51.63,51.63,0,0,0,15.181-10.8,17.069,17.069,0,0,0,3.611-5.293,16.668,16.668,0,0,0-.734-11.478,18.122,18.122,0,0,0-4.367-6.159,19.243,19.243,0,0,0-3.651-2.707c-7.41-3.825-16.468-.664-23.742,2.228l-.181-.321h0Z" transform="translate(-431.965 -714.395)" fill="#fffaf4"/>
        <path id="Path_145" data-name="Path 145" d="M519.459,825.6c3.924-5.621,10.715-9.877,17.778-9.033,5.6.557,10.287,5.569,10,11.279a10.062,10.062,0,0,1-4.127,7.664c-1.914,1.332-4.02,2.412-6.034,3.548-2.9,1.6-5.835,3.183-8.642,4.942-5.584,3.486-10.862,7.72-14.244,13.47l-.325-.177a31.275,31.275,0,0,1,5.946-8.125c5.934-6,13.573-9.8,20.662-14.185a10.291,10.291,0,0,0,3.4-3.032c3.364-5.016-.07-11.858-5.776-13.049-6.779-1.317-13.278,2.641-18.349,6.938l-.284-.236h0Z" transform="translate(-435.531 -724.927)" fill="#fffaf4"/>
        <path id="Path_146" data-name="Path 146" d="M395.36,775.986c2.49-1.022,5.259-2,7.1-4.009a1.788,1.788,0,0,0,.413-1.756,4.121,4.121,0,0,0-.845-1.4,4.187,4.187,0,0,0-3.618-.966l-.107-.354a4.085,4.085,0,0,1,5.341,2.124c1.236,2.689-2.08,4.5-4.105,5.4a22.6,22.6,0,0,1-4.083,1.313l-.1-.354h0Z" transform="translate(-360.738 -693.837)" fill="#fffaf4"/>
        <path id="Path_147" data-name="Path 147" d="M330.941,698.935c-9.767-3.058-24.7-9.674-28.481-19.895-2.195-6.595-.782-15.1,5.422-19.017,7.815-4.75,17.39-.266,23.956,4.651l-.2.314c-5.566-2.648-14.536-5.979-19.917-1.734-2.25,1.9-3.176,4.865-3.471,7.753a15.677,15.677,0,0,0,3.286,11.021c5.141,6.809,14.989,11.544,23.395,12.411,4.1.24,8.656-.159,12.271,2.217a8.2,8.2,0,0,1,3.017,5.6c.69,3.666-2.836,5.809-5.993,6.3l-.063-.365a10.341,10.341,0,0,0,2.807-1.081,4.294,4.294,0,0,0,2.482-4.725c-.627-3.2-2.235-5.3-5.492-6.034-3.969-1.025-8.243-.192-12.264-1.007-8.173-1.663-16.236-5.676-21.436-12.37a17.032,17.032,0,0,1-3.511-12.123c.428-4.326,2.6-8.852,7.048-10.176,5.887-1.774,12.939,1.084,18.021,3.991l-.2.313a45.794,45.794,0,0,0-8.966-4.253c-6.041-2.113-13.418-1.811-17.114,4.016a16.12,16.12,0,0,0-2.025,11.434c.583,4.028,3.124,7.369,6.075,10.069a57.291,57.291,0,0,0,12.341,8.232,93.079,93.079,0,0,0,9.114,4.105l-.114.35h0Z" transform="translate(-301.489 -624.915)" fill="#fffaf4"/>
        <path id="Path_148" data-name="Path 148" d="M447.964,760.874c4.212,1.328,5.916,5.713,4.846,9.793a9.414,9.414,0,0,1-.686,1.553l-.35-.111c0-1.612.432-3.153.251-4.75-.015-.129-.044-.454-.052-.579a7.54,7.54,0,0,0-4.124-5.558l.118-.35h0Z" transform="translate(-393.868 -689.841)" fill="#fffaf4"/>
        <path id="Path_149" data-name="Path 149" d="M459.617,760.864c3.489.284,5.153,4.507,4.883,7.58l-.365.059c-.649-1.343-1.147-2.774-1.888-4.046a9.954,9.954,0,0,0-2.707-3.235l.078-.362h0Z" transform="translate(-401.246 -689.834)" fill="#fffaf4"/>
        <path id="Path_150" data-name="Path 150" d="M398.641,711.43c-4.928,7.742-14.281,2.095-19.869-1.789-4.042-2.759-7.83-5.905-11.983-8.476-1.966-1.121-4.308-2.552-6.606-2.006-2.15.823-4.223,2.833-2.715,5.193A14.484,14.484,0,0,0,363,708.874l-.207.3a5.611,5.611,0,0,1-1.1-.852c-2.589-2.486-1.317-5.278,2.058-5.824,2.217-.487,3.958,1.121,5.123,2.707a45.1,45.1,0,0,0,5.023,5.968l-.221.3a19.176,19.176,0,0,1-4.19-3.327c-.623-.638-1.206-1.313-1.789-1.944-1.036-1.132-2.047-2.294-3.64-1.966-1.409.313-2.652.848-2.091,2.43a10.569,10.569,0,0,0,1.088,2.239l.941.87c-2.593-1.272-5.3-2.682-6.952-5.16-1.258-1.9-.49-3.895,1.276-5.127a4.58,4.58,0,0,1,3.648-1.059,14.917,14.917,0,0,1,5.2,2.124c2.128,1.265,4.127,2.7,6.111,4.142,5.473,3.781,15.6,12.614,22.388,8.83a9.724,9.724,0,0,0,2.689-2.312l.3.218h0Z" transform="translate(-336.158 -650.389)" fill="#fffaf4"/>
        <path id="Path_151" data-name="Path 151" d="M417.21,716.374c4.1,3.032,8.955,5.289,14.119,4.843a27.187,27.187,0,0,0,5.086-.974l.173.324c-4.481,3.854-11.172,3.319-15.782-.037a14.775,14.775,0,0,1-3.876-3.917l.277-.244h0Z" transform="translate(-374.352 -661.754)" fill="#fffaf4"/>
        <path id="Path_152" data-name="Path 152" d="M404.449,651.678a4.895,4.895,0,0,1,.653.325c1.324.76,2.707,1.641,3.98,2.475l2.228,1.472a13.577,13.577,0,0,0,7.336,1.8c5.532.066,15.395-2.582,15.391-9.346-.609-6.348-5.071-13.178-11.648-14.292-2.976-.487-6.62.638-8.424,3.032-2.017,2.763.21,6.156,2.866,7.535a12.78,12.78,0,0,0,4.916,1.453v.369a11.907,11.907,0,0,1-2.733-.041c-6.735-.716-10.991-8.037-4.7-12.691,8.2-5.673,17.671.727,20.636,9.029.948,2.707,1.8,5.78.664,8.564-2.585,6.071-11.039,8.077-17.018,7.8a14.5,14.5,0,0,1-7.863-2.431l-2.117-1.619c-1.1-.819-2.888-2.2-4.02-2.943l-.136-.085-.066-.04c-.015-.011-.063-.03-.033-.022l.081-.362h0Z" transform="translate(-366.415 -608.259)" fill="#fffaf4"/>
        <path id="Path_153" data-name="Path 153" d="M416.877,625.462c4.714-6.709,12.75-8.1,20.094-5.134,7.417,2.825,12.861,8.321,13.728,16.464a25.5,25.5,0,0,1-1.343,11.057,22.249,22.249,0,0,1-1.479,3.4l-.336-.155a42.39,42.39,0,0,0,1.63-7.037c1.343-8.918-1.162-16.675-9.4-21.112-6.322-3.729-14.056-4.75-20.075.159a14.339,14.339,0,0,0-2.515,2.556l-.31-.2h0Z" transform="translate(-374.314 -600.201)" fill="#fffaf4"/>
        <path id="Path_154" data-name="Path 154" d="M508.289,692.477a5.479,5.479,0,0,1,3.035-7.5,14.038,14.038,0,0,1,8.461-.2l.575.155-.564.206a10.136,10.136,0,0,0-6.34,7.911c-.055.365-.144,1.261-.2,1.619-.734,5.145-6.377,7.572-10.825,8.745a22.833,22.833,0,0,1-6.761.664,9.005,9.005,0,0,1-2.261-.395l.074-.361a36.4,36.4,0,0,0,8.546-1.453c3.854-1.11,9.022-3,9.877-7.391.066-.35.225-1.309.288-1.674l.31-1.125a10.194,10.194,0,0,1,7.207-6.893l.011.361c-4.112-.225-10.515-.077-10.951,5.245a19.193,19.193,0,0,0-.114,2.018l-.361.07h0Z" transform="translate(-422.624 -641.465)" fill="#fffaf4"/>
        <path id="Path_155" data-name="Path 155" d="M510.859,732.273c-3.338,4.212-8.915,7.579-14.429,6.384l.052-.365c4.013.2,7.76-1.509,10.973-3.784a36.483,36.483,0,0,0,3.131-2.479l.277.244h0Z" transform="translate(-424.53 -671.638)" fill="#fffaf4"/>
        <path id="Path_156" data-name="Path 156" d="M486.268,568.518c-2.914,6.211-3.806,12.492,3.386,15.742,1.011.468,2.353.918,3.415,1.291,7.063,2.431,12.861,8.284,13.8,15.882a13.77,13.77,0,0,1,.092,3.095l-.369-.011a19.313,19.313,0,0,0-4.762-10.5,23.19,23.19,0,0,0-11.035-6.473c-6.591-1.988-10.818-6.993-8.2-13.982a15.088,15.088,0,0,1,3.378-5.263l.3.221h0Z" transform="translate(-415.302 -568.296)" fill="#fffaf4"/>
        <path id="Path_157" data-name="Path 157" d="M498.125,568.508c-1.826,5.765.675,7.259,5.614,9,8,3.05,14.879,7.41,13.894,17.051l-.369-.011c-.184-6.93-3.84-10.855-9.966-13.525-1.379-.623-2.807-1.169-4.253-1.7-2.283-.852-4.946-1.656-6.4-3.81a5.592,5.592,0,0,1,1.177-7.218l.3.218h0Z" transform="translate(-424.13 -568.29)" fill="#fffaf4"/>
        <path id="Path_158" data-name="Path 158" d="M357.27,598.845c-1-7.55,4.183-13.864,10.98-16.472,7.144-3.021,14.554-.387,19.032,5.761l.446.6-.631-.3c-5.639-1.283-11.865-1.722-17.32.5a21.9,21.9,0,0,0-6.93,5.156c-1.925,2.106-3.851,4.559-4.282,7.447H358.2a10.366,10.366,0,0,1,1.4-4.326,21.14,21.14,0,0,1,2.626-3.692,25.3,25.3,0,0,1,5.1-4.518,17.459,17.459,0,0,1,6.5-2.106,33.685,33.685,0,0,1,13.377,1.188c.007,0-.181.306-.181.31-5.507-4.171-11.194-6.488-17.958-3.906-6.259,2.191-11.08,7.543-11.426,14.318l-.369.037h0Z" transform="translate(-336.619 -576.387)" fill="#fffaf4"/>
      </g>
    </g>
  </g>
</svg>
