<svg xmlns="http://www.w3.org/2000/svg" width="116.52" height="94" viewBox="0 0 116.52 94">
  <g id="Group_138" data-name="Group 138" transform="translate(-886.24 -1740.75)">
    <circle id="Ellipse_187" data-name="Ellipse 187" cx="47" cy="47" r="47" transform="translate(886.24 1740.75)" fill="#ffe9e2"/>
    <path id="phone" d="M19.921,26.694A96.038,96.038,0,0,0,42.839,49.616c.746-1.063,1.448-2.067,2.153-3.065a7.8,7.8,0,0,1,11.4-2q4.711,3.272,9.4,6.567c3.723,2.613,4.714,6.4,2.712,10.475a13.518,13.518,0,0,1-10.5,7.6c-5.517.933-10.756-.278-15.859-2.246a64.789,64.789,0,0,1-19-11.741A75.281,75.281,0,0,1,4.327,31.43,40.367,40.367,0,0,1,.214,18.345C-.342,13.629.064,9.059,3,5.081A11.932,11.932,0,0,1,10.736.118a6.953,6.953,0,0,1,7.038,2.813c2.691,3.609,5.293,7.3,7.737,11.075a7.565,7.565,0,0,1-1.952,10.087c-1.157.881-2.366,1.7-3.635,2.6Z" transform="translate(933.238 1746.242)" fill="#db9292"/>
  </g>
</svg>
