<svg xmlns="http://www.w3.org/2000/svg" width="30.881" height="40.777" viewBox="0 0 30.881 40.777">
  <path id="pinterest" d="M56.982,188.058l-1.046,2.834s-6.571-1.79-4.836-11.227S64.931,168,69.758,168.927c0,0,13.125,2.169,10.413,16.7s-15.4,12.149-17.03,7.918l-1.41,6.508a28.626,28.626,0,0,1-4.556,7.593,43.136,43.136,0,0,1-.325-8.027l3.363-13.342s-2.6-6.183,1.41-8.461S68.1,180.1,65.675,185.2s-.039,8.894,4.517,7.05,8.135-13.884,1.844-18.115-17.03-.108-17.03,8.135A12.524,12.524,0,0,0,56.982,188.058Z" transform="translate(-50.237 -168.109)" fill="none" stroke="#fffaf4" stroke-miterlimit="10" stroke-width="1.13"/>
</svg>
