<svg xmlns="http://www.w3.org/2000/svg" width="313.226" height="94" viewBox="0 0 313.226 94">
  <g id="Group_139" data-name="Group 139" transform="translate(-1356.693 -1740.75)">
    <circle id="Ellipse_188" data-name="Ellipse 188" cx="47" cy="47" r="47" transform="translate(1479.717 1740.75)" fill="#ffe9e2"/>
    <g id="Group_125" data-name="Group 125" transform="translate(1523.02 1746.244)">
      <g id="Group_10" data-name="Group 10" transform="translate(-0.001 0)">
        <path id="Path_6" data-name="Path 6" d="M16.156,17.316H-58.915a5.8,5.8,0,0,1-5.8-5.8V-63.556a5.8,5.8,0,0,1,5.8-5.8H16.156a5.8,5.8,0,0,1,5.8,5.8V11.516a5.8,5.8,0,0,1-5.8,5.8" transform="translate(64.715 69.356)" fill="none"/>
      </g>
      <g id="Group_11" data-name="Group 11" transform="translate(12.953 12.838)">
        <path id="Path_7" data-name="Path 7" d="M0,3V35.19A15.2,15.2,0,0,0,15.195,50.384H46.377A14.622,14.622,0,0,0,61,35.762V3.584A15.618,15.618,0,0,0,45.285-12.034l-30.528.19A14.848,14.848,0,0,0,0,3Zm46.6,16.5A16.1,16.1,0,1,1,30.5,3.4,16.1,16.1,0,0,1,46.6,19.505ZM52.286.371a3.41,3.41,0,1,1-3.41-3.409A3.411,3.411,0,0,1,52.286.371Z" transform="translate(0 12.034)" fill="none" stroke="#db9292" stroke-width="2"/>
      </g>
    </g>
    <g id="Group_126" data-name="Group 126" transform="translate(1356.693 1746.244)">
      <g id="Group_12" data-name="Group 12" transform="translate(0 0)">
        <path id="Path_8" data-name="Path 8" d="M15.857,16.979H-59.071a5.7,5.7,0,0,1-5.7-5.7v-74.93a5.7,5.7,0,0,1,5.7-5.7H15.857a5.7,5.7,0,0,1,5.7,5.7v74.93a5.7,5.7,0,0,1-5.7,5.7" transform="translate(64.775 69.356)" fill="none"/>
      </g>
      <g id="Group_13" data-name="Group 13" transform="translate(25.277 9.238)">
        <path id="Path_9" data-name="Path 9" d="M5.462,2.548h6.915A1.677,1.677,0,0,0,14.053.871V-8.519a1.889,1.889,0,0,0-1.89-1.89H2.406A14.685,14.685,0,0,0-12.279,4.276v9.976H-20.74a1.571,1.571,0,0,0-1.571,1.571V26.547a1.5,1.5,0,0,0,1.5,1.5h8.533V55.7a1.6,1.6,0,0,0,1.6,1.6H.209a1.723,1.723,0,0,0,1.723-1.724V28.044h10.14a1.563,1.563,0,0,0,1.563-1.562V15.914a1.662,1.662,0,0,0-1.662-1.662H1.931V6.078A3.531,3.531,0,0,1,5.462,2.548Z" transform="translate(22.311 10.409)" fill="none" stroke="#db9292" stroke-width="2"/>
      </g>
    </g>
    <g id="Group_127" data-name="Group 127" transform="translate(1436.414 1746.244)">
      <g id="Group_5" data-name="Group 5" transform="translate(-0.001 0)">
        <path id="Path_1" data-name="Path 1" d="M16.609,17.79H-58.5a5.747,5.747,0,0,1-5.748-5.746V-63.07A5.747,5.747,0,0,1-58.5-68.816H16.609a5.746,5.746,0,0,1,5.746,5.746V12.044a5.746,5.746,0,0,1-5.746,5.746" transform="translate(64.25 68.816)" fill="none"/>
      </g>
      <g id="Group_7" data-name="Group 7" transform="translate(14.591 12.238)">
        <path id="Path_3" data-name="Path 3" d="M10.786,0-41.722,60.954h3.671L14.824,0Z" transform="translate(41.722)" fill="#db9292"/>
      </g>
      <g id="Group_9" data-name="Group 9" transform="translate(16.427 12.972)">
        <path id="Path_5" data-name="Path 5" d="M0,0H13.953L55.079,59.853H41.126Z" fill="none" stroke="#db9292" stroke-width="2"/>
      </g>
    </g>
    <path id="pinterest" d="M61.15,201.1,59.4,205.849s-11.007-3-8.1-18.805,23.166-19.532,31.252-17.988c0,0,21.985,3.634,17.443,27.981s-25.8,20.35-28.526,13.264L69.1,221.2s-3.089,7.813-7.631,12.719a72.255,72.255,0,0,1-.545-13.445l5.633-22.348s-4.361-10.357,2.362-14.172,10.849,3.821,6.788,12.357-.065,14.9,7.566,11.808,13.627-23.257,3.089-30.343S57.839,177.6,57.839,191.4A20.978,20.978,0,0,0,61.15,201.1Z" transform="translate(1568.289 1588.083)" fill="none" stroke="#db9292" stroke-miterlimit="10" stroke-width="2"/>
  </g>
</svg>
