<svg xmlns="http://www.w3.org/2000/svg" width="47.051" height="47.051" viewBox="0 0 47.051 47.051">
  <g id="Group_54" data-name="Group 54" transform="translate(-1682.761 -4060.356)">
    <g id="Group_5" data-name="Group 5" transform="translate(1682.761 4060.356)">
      <path id="Path_1" data-name="Path 1" d="M-20.321-21.765H-61.127a3.122,3.122,0,0,1-3.123-3.122V-65.694a3.122,3.122,0,0,1,3.123-3.122h40.806A3.122,3.122,0,0,1-17.2-65.694v40.807a3.122,3.122,0,0,1-3.122,3.122" transform="translate(64.25 68.816)" fill="none"/>
    </g>
    <g id="Group_7" data-name="Group 7" transform="translate(1690.689 4067.005)">
      <path id="Path_3" data-name="Path 3" d="M-13.2,0-41.722,33.115h1.994L-11,0Z" transform="translate(41.722)" fill="#fffaf4"/>
    </g>
    <g id="Group_9" data-name="Group 9" transform="translate(1691.686 4067.404)">
      <path id="Path_5" data-name="Path 5" d="M0,0H7.58L29.923,32.516h-7.58Z" fill="none" stroke="#fffaf4" stroke-width="1.122"/>
    </g>
  </g>
</svg>
