<svg xmlns="http://www.w3.org/2000/svg" width="107.133" height="133.768" viewBox="0 0 107.133 133.768">
  <g id="web_logo" transform="translate(0 0)">
    <g id="Layer_4" data-name="Layer 4" transform="translate(11.807 77.959)">
      <path id="Path_141" data-name="Path 141" d="M431.4,815.685c-1.633-7.4-7.11-12.266-10.536-12.837s-8.026-2.21-19.893,3.277l-.19-1.113s-.677,3.613-6.677,6.777-31.966,7.273-42.982,3.883c0,0-11.75-2.8-14.216-7.763,0,0,3.77,21.6,5.817,27.319s5.49,17.606,11.6,19.5,21.943,3.59,25.859,1.74,8.25-.83,13.916-6.007l.833-1.823s9.4-7.057,16.113-9.873,15.24-8.463,16.813-11.307a12.37,12.37,0,0,0,3.54-11.776Zm-18.526,13.043c-9.94,6.386-13.606,9.386-16.273,14.053l2.667-12s1.95-11.293,1.81-15.48c0,0,3.857-4.52,6.857-5.52s7.667-3,11.333-1,5.73,3.253,5.867,8.127-2.317,5.433-12.256,11.82Z" transform="translate(-336.91 -802.172)" fill="#fffaf4"/>
    </g>
    <g id="Layer_2" data-name="Layer 2" transform="translate(0)">
      <path id="Path_142" data-name="Path 142" d="M343.916,777.836c-4.433,1.237-8.783,4.807-8.79,9.73.453,5.45,9.86,8.02,14.386,8.963a64.96,64.96,0,0,0,19.666.707c7.583-.727,26.866-2.03,29.009-10.757a7.794,7.794,0,0,0-1.127-5.963c-2.25-3.49-7.41-5.006-11.33-5.677l.04-.33a23.867,23.867,0,0,1,6.533,1.537,17.1,17.1,0,0,1,3.043,1.527,8.993,8.993,0,0,1,3.96,9.15c-1.02,4.773-6.013,7.17-10.183,8.633a53.45,53.45,0,0,1-6.527,1.72c-13.153,2.27-27.049,3.85-39.869-1.05-3.953-1.6-9.523-4.673-8.47-9.773a9.877,9.877,0,0,1,2.29-4.627,13.811,13.811,0,0,1,7.3-4.113l.07.327h0Z" transform="translate(-323.25 -705.771)" fill="#fffaf4"/>
      <path id="Path_143" data-name="Path 143" d="M335.42,807.577c2.237,10.906,7.66,38.293,15.286,45.459a8.578,8.578,0,0,0,3.623,1.7,63.291,63.291,0,0,0,17.353,1.957c5.987-.163,16.116-.963,19.856-6.1a8.421,8.421,0,0,0,.887-1.837c.21-.507.6-1.533.78-2.053a114.523,114.523,0,0,0,6.14-43.582l.333-.03a88.411,88.411,0,0,1,.53,8.913,110.644,110.644,0,0,1-.443,11.166A103.5,103.5,0,0,1,394,849.379c-2.51,7.836-15.3,9.013-22.283,9.2a62.138,62.138,0,0,1-17.916-2.05,10.28,10.28,0,0,1-4.33-2.11c-6.12-5.9-9.477-20.9-11.366-29.216-1.233-5.823-2.267-11.68-3.017-17.58l.33-.05Z" transform="translate(-323.89 -724.825)" fill="#fffaf4"/>
      <path id="Path_144" data-name="Path 144" d="M515.093,804.382c6.22-4.03,15.32-6.47,22.223-2.823a19.937,19.937,0,0,1,2.443,1.673c.337.243.783.693,1.1.977a17.909,17.909,0,0,1,3.583,4.66,16.491,16.491,0,0,1,1.273,12.563,16.086,16.086,0,0,1-3.56,5.137,47.436,47.436,0,0,1-14.143,9.79A94.838,94.838,0,0,0,517.88,841.5a104.409,104.409,0,0,0-9.463,6.31l-.207-.26a95.079,95.079,0,0,1,9.35-6.583,88.838,88.838,0,0,1,10.09-5.38,46.66,46.66,0,0,0,13.72-9.76,15.426,15.426,0,0,0,3.263-4.783,15.063,15.063,0,0,0-.663-10.373,16.379,16.379,0,0,0-3.947-5.567,17.391,17.391,0,0,0-3.3-2.447c-6.7-3.457-14.883-.6-21.456,2.013l-.163-.29h0Z" transform="translate(-439.304 -722.614)" fill="#fffaf4"/>
      <path id="Path_145" data-name="Path 145" d="M518.92,824.72c3.547-5.08,9.683-8.927,16.066-8.163a10.066,10.066,0,0,1,9.033,10.193,9.093,9.093,0,0,1-3.73,6.927c-1.73,1.2-3.633,2.18-5.453,3.207-2.623,1.447-5.273,2.877-7.81,4.467-5.047,3.15-9.816,6.977-12.873,12.173l-.293-.16a28.265,28.265,0,0,1,5.373-7.343c5.363-5.42,12.266-8.853,18.673-12.82a9.3,9.3,0,0,0,3.073-2.74c3.04-4.533-.063-10.716-5.22-11.793-6.127-1.19-12,2.387-16.583,6.27l-.257-.213h0Z" transform="translate(-443.071 -733.738)" fill="#fffaf4"/>
      <path id="Path_146" data-name="Path 146" d="M395.36,775.141c2.25-.923,4.753-1.8,6.42-3.623a1.616,1.616,0,0,0,.373-1.587,3.723,3.723,0,0,0-.763-1.267,3.784,3.784,0,0,0-3.27-.873l-.1-.32a3.692,3.692,0,0,1,4.827,1.92c1.117,2.43-1.88,4.07-3.71,4.88a20.426,20.426,0,0,1-3.69,1.187l-.09-.32h0Z" transform="translate(-364.07 -700.899)" fill="#fffaf4"/>
      <path id="Path_147" data-name="Path 147" d="M328.106,695c-8.827-2.763-22.326-8.743-25.74-17.979-1.983-5.96-.707-13.643,4.9-17.186,7.063-4.293,15.716-.24,21.65,4.2l-.177.283c-5.03-2.393-13.136-5.4-18-1.567-2.033,1.717-2.87,4.4-3.137,7.007a14.168,14.168,0,0,0,2.97,9.96c4.647,6.153,13.546,10.433,21.143,11.217,3.7.216,7.823-.143,11.09,2a7.407,7.407,0,0,1,2.727,5.06c.623,3.313-2.563,5.25-5.417,5.7l-.057-.33a9.346,9.346,0,0,0,2.537-.977,3.881,3.881,0,0,0,2.243-4.27c-.567-2.893-2.02-4.793-4.963-5.453-3.587-.927-7.45-.173-11.083-.91-7.387-1.5-14.673-5.13-19.373-11.18a15.393,15.393,0,0,1-3.173-10.956c.387-3.91,2.35-8,6.37-9.2,5.32-1.6,11.693.98,16.286,3.607l-.177.283a41.388,41.388,0,0,0-8.1-3.843c-5.46-1.91-12.126-1.637-15.466,3.63a14.568,14.568,0,0,0-1.83,10.333c.527,3.64,2.823,6.66,5.49,9.1a51.777,51.777,0,0,0,11.153,7.44,84.121,84.121,0,0,0,8.237,3.71l-.1.317h0Z" transform="translate(-301.489 -628.1)" fill="#fffaf4"/>
      <path id="Path_148" data-name="Path 148" d="M447.953,760.873c3.807,1.2,5.347,5.163,4.38,8.85a8.5,8.5,0,0,1-.62,1.4l-.317-.1a37.208,37.208,0,0,0,.227-4.293c-.013-.117-.04-.41-.047-.523a6.814,6.814,0,0,0-3.727-5.023l.107-.317h0Z" transform="translate(-399.064 -696.678)" fill="#fffaf4"/>
      <path id="Path_149" data-name="Path 149" d="M459.61,760.863c3.153.257,4.657,4.073,4.413,6.85l-.33.053c-.587-1.213-1.037-2.507-1.707-3.657a9,9,0,0,0-2.447-2.923l.07-.327h0Z" transform="translate(-406.857 -696.671)" fill="#fffaf4"/>
      <path id="Path_150" data-name="Path 150" d="M394.577,710.173c-4.453,7-12.906,1.893-17.956-1.617-3.653-2.493-7.077-5.337-10.83-7.66-1.777-1.013-3.893-2.307-5.97-1.813-1.943.743-3.817,2.56-2.453,4.693a13.09,13.09,0,0,0,5,4.087l-.187.27a5.071,5.071,0,0,1-1-.77c-2.34-2.247-1.19-4.77,1.86-5.263,2-.44,3.577,1.013,4.63,2.447a40.759,40.759,0,0,0,4.54,5.393l-.2.267a17.328,17.328,0,0,1-3.787-3.007c-.563-.577-1.09-1.187-1.617-1.757-.937-1.023-1.85-2.073-3.29-1.777-1.273.283-2.4.767-1.89,2.2a9.551,9.551,0,0,0,.983,2.023l.85.787c-2.343-1.15-4.787-2.423-6.283-4.663-1.137-1.72-.443-3.52,1.153-4.633a4.139,4.139,0,0,1,3.3-.957,13.481,13.481,0,0,1,4.7,1.92c1.923,1.143,3.73,2.44,5.523,3.743,4.947,3.417,14.1,11.4,20.233,7.98a8.788,8.788,0,0,0,2.43-2.09l.27.2h0Z" transform="translate(-338.108 -655.007)" fill="#fffaf4"/>
      <path id="Path_151" data-name="Path 151" d="M417.183,716.373c3.7,2.74,8.093,4.78,12.76,4.377a24.574,24.574,0,0,0,4.6-.88l.157.293c-4.05,3.483-10.1,3-14.263-.033a13.353,13.353,0,0,1-3.5-3.54l.25-.22h0Z" transform="translate(-378.451 -667.011)" fill="#fffaf4"/>
      <path id="Path_152" data-name="Path 152" d="M404.44,649.746a4.42,4.42,0,0,1,.59.293c1.2.687,2.447,1.483,3.6,2.237l2.013,1.33a12.271,12.271,0,0,0,6.63,1.63c5,.06,13.913-2.333,13.91-8.446-.55-5.737-4.583-11.91-10.526-12.917a8.3,8.3,0,0,0-7.613,2.74c-1.823,2.5.19,5.563,2.59,6.81a11.549,11.549,0,0,0,4.443,1.313v.333a10.76,10.76,0,0,1-2.47-.037c-6.087-.647-9.933-7.263-4.243-11.47,7.413-5.127,15.97.657,18.65,8.16.857,2.447,1.623,5.223.6,7.74-2.337,5.487-9.977,7.3-15.38,7.05a13.105,13.105,0,0,1-7.107-2.2l-1.913-1.463c-.993-.74-2.61-1.987-3.633-2.66l-.123-.077-.06-.037c-.013-.01-.057-.027-.03-.02l.073-.327h0Z" transform="translate(-370.067 -610.507)" fill="#fffaf4"/>
      <path id="Path_153" data-name="Path 153" d="M416.877,624.825c4.26-6.063,11.523-7.323,18.16-4.64,6.7,2.553,11.623,7.52,12.406,14.88a23.043,23.043,0,0,1-1.213,9.993,20.107,20.107,0,0,1-1.337,3.077l-.3-.14a38.308,38.308,0,0,0,1.473-6.36c1.213-8.06-1.05-15.07-8.5-19.08-5.713-3.37-12.7-4.293-18.143.143a12.96,12.96,0,0,0-2.273,2.31l-.28-.183h0Z" transform="translate(-378.41 -601.996)" fill="#fffaf4"/>
      <path id="Path_154" data-name="Path 154" d="M506.856,691.683a4.951,4.951,0,0,1,2.743-6.78,12.687,12.687,0,0,1,7.646-.177l.52.14-.51.187a9.16,9.16,0,0,0-5.73,7.15c-.05.33-.13,1.14-.18,1.463-.663,4.65-5.763,6.843-9.783,7.9a20.632,20.632,0,0,1-6.11.6,8.138,8.138,0,0,1-2.043-.357l.067-.327a32.9,32.9,0,0,0,7.723-1.313c3.483-1,8.153-2.713,8.926-6.68.06-.317.2-1.183.26-1.513l.28-1.017a9.212,9.212,0,0,1,6.513-6.23l.01.327c-3.717-.2-9.5-.07-9.9,4.74a17.348,17.348,0,0,0-.1,1.823l-.327.063h0Z" transform="translate(-429.438 -645.581)" fill="#fffaf4"/>
      <path id="Path_155" data-name="Path 155" d="M509.47,732.25c-3.017,3.807-8.056,6.85-13.04,5.77l.047-.33c3.627.18,7.013-1.363,9.916-3.42a32.955,32.955,0,0,0,2.83-2.24l.25.22h0Z" transform="translate(-431.451 -677.451)" fill="#fffaf4"/>
      <path id="Path_156" data-name="Path 156" d="M485.839,568.5c-2.633,5.613-3.44,11.29,3.06,14.226.913.423,2.127.83,3.087,1.167,6.383,2.2,11.623,7.487,12.47,14.353a12.445,12.445,0,0,1,.083,2.8l-.333-.01a17.454,17.454,0,0,0-4.3-9.487,20.958,20.958,0,0,0-9.973-5.85c-5.957-1.8-9.776-6.32-7.41-12.636a13.636,13.636,0,0,1,3.053-4.757l.267.2h0Z" transform="translate(-421.703 -568.297)" fill="#fffaf4"/>
      <path id="Path_157" data-name="Path 157" d="M497.9,568.487c-1.65,5.21.61,6.56,5.073,8.133,7.23,2.757,13.446,6.7,12.556,15.41l-.333-.01c-.167-6.263-3.47-9.81-9.007-12.223-1.247-.563-2.537-1.057-3.843-1.54-2.063-.77-4.47-1.5-5.78-3.443a5.053,5.053,0,0,1,1.063-6.523l.27.2h0Z" transform="translate(-431.028 -568.29)" fill="#fffaf4"/>
      <path id="Path_158" data-name="Path 158" d="M357.258,597.139c-.9-6.823,3.78-12.53,9.923-14.886,6.457-2.73,13.153-.35,17.2,5.207l.4.547-.57-.27c-5.1-1.16-10.723-1.557-15.653.45a19.789,19.789,0,0,0-6.263,4.66c-1.74,1.9-3.48,4.12-3.87,6.73h-.333a9.367,9.367,0,0,1,1.263-3.91,19.107,19.107,0,0,1,2.373-3.337,22.867,22.867,0,0,1,4.61-4.083,15.779,15.779,0,0,1,5.877-1.9,30.444,30.444,0,0,1,12.09,1.073c.007,0-.163.277-.163.28-4.977-3.77-10.116-5.863-16.23-3.53-5.657,1.98-10.013,6.817-10.327,12.94l-.333.033h0Z" transform="translate(-338.594 -576.842)" fill="#fffaf4"/>
    </g>
  </g>
</svg>
